<svg width="100%" height="100%" viewBox="0 0 150 150" fill="none" xmlns="http://www.w3.org/2000/svg">
<path d="M121.001 21H28.9725C24.5715 21 21 24.4875 21 28.782V121.208C21 125.508 24.5715 129 28.9725 129H121.001C125.405 129 129 125.508 129 121.208V28.782C129 24.4875 125.405 21 121.001 21ZM53.031 113.031H37.005V61.4925H53.031V113.031ZM45.018 54.4455C43.7982 54.4455 42.5903 54.2051 41.4634 53.7381C40.3365 53.2712 39.3127 52.5867 38.4504 51.7239C37.5881 50.861 36.9043 49.8368 36.4381 48.7096C35.9718 47.5824 35.7322 46.3743 35.733 45.1545C35.733 42.6922 36.7112 40.3307 38.4523 38.5895C40.1934 36.8484 42.5549 35.8702 45.0173 35.8702C47.4796 35.8702 49.8411 36.8484 51.5822 38.5895C53.3233 40.3307 54.3015 42.6922 54.3015 45.1545C54.3015 47.6173 53.3237 49.9794 51.5829 51.7216C49.8421 53.4638 47.4808 54.4435 45.018 54.4455ZM113.025 113.031H97.0245V87.969C97.0245 81.99 96.9075 74.3025 88.698 74.3025C80.361 74.3025 79.0905 80.814 79.0905 87.5355V113.033H63.078V61.4925H78.4455V68.5305H78.6645C80.8035 64.4805 86.0295 60.207 93.8235 60.207C110.033 60.207 113.026 70.878 113.026 84.7605V113.031H113.025Z" fill="#27496D"/>
</svg>
