<svg width="100%" height="100%" viewBox="0 0 150 150" fill="none" xmlns="http://www.w3.org/2000/svg">
<path d="M125 37.5H106.25V25C106.25 18.0625 100.687 12.5 93.75 12.5H56.25C49.3125 12.5 43.75 18.0625 43.75 25V37.5H25C18.0625 37.5 12.5 43.0625 12.5 50V118.75C12.5 125.687 18.0625 131.25 25 131.25H125C131.937 131.25 137.5 125.687 137.5 118.75V50C137.5 43.0625 131.937 37.5 125 37.5ZM56.25 25H93.75V37.5H56.25V25ZM125 118.75H25V106.25H125V118.75ZM125 87.5H25V50H43.75V62.5H56.25V50H93.75V62.5H106.25V50H125V87.5Z" fill="#27496D"/>
</svg>
