<svg width="100%" height="100%" viewBox="0 0 150 150" fill="none" xmlns="http://www.w3.org/2000/svg">
<g clip-path="url(#clip0)">
<path d="M46.8751 21.0938C46.8751 9.44385 59.4669 0 75.0001 0C90.5333 0 103.125 9.44385 103.125 21.0938C103.125 32.7434 90.5333 42.1875 75.0001 42.1875C59.4669 42.1875 46.8751 32.7434 46.8751 21.0938ZM146.339 21.496C141.458 17.8348 133.543 17.8348 128.661 21.496L94.8224 46.875H55.1775L21.3388 21.496C16.4576 17.8348 8.54272 17.8348 3.66147 21.496C-1.22017 25.1572 -1.22017 31.0931 3.66147 34.7543L40.6251 62.4768V140.625C40.6251 145.803 46.2216 150 53.1251 150H59.3751C66.2787 150 71.8751 145.803 71.8751 140.625V107.812H78.1251V140.625C78.1251 145.803 83.7216 150 90.6251 150H96.8751C103.779 150 109.375 145.803 109.375 140.625V62.4768L146.339 34.754C151.22 31.0928 151.22 25.1572 146.339 21.496V21.496Z" fill="white"/>
</g>
<defs>
<clipPath id="clip0">
<rect width="150" height="150" fill="white"/>
</clipPath>
</defs>
</svg>
