<svg width="100%" height="100%" viewBox="0 0 150 150" fill="none" xmlns="http://www.w3.org/2000/svg">
<path d="M29.025 30H128.4C137.775 30 142.5 34.425 142.5 43.425V106.575C142.5 115.5 137.775 120 128.4 120H29.025C19.65 120 14.925 115.5 14.925 106.575V43.425C14.925 34.425 19.65 30 29.025 30ZM78.675 94.5L129.225 53.025C131.025 51.525 132.45 48.075 130.2 45C128.025 41.925 124.05 41.85 121.425 43.725L78.675 72.675L36 43.725C33.375 41.85 29.4 41.925 27.225 45C24.975 48.075 26.4 51.525 28.2 53.025L78.675 94.5Z" fill="#27496D"/>
</svg>
