<svg width="100%" height="100%" viewBox="0 0 150 150" fill="none" xmlns="http://www.w3.org/2000/svg">
<path d="M112.875 143.688H123.25C128.5 143.688 132.812 139.688 133.438 134.562L143.75 31.5625H112.5V6.25H100.188V31.5625H69.125L71 46.1875C81.6875 49.125 91.6875 54.4375 97.6875 60.3125C106.688 69.1875 112.875 78.375 112.875 93.375V143.688ZM6.25 137.438V131.25H100.188V137.438C100.188 140.875 97.375 143.688 93.875 143.688H12.5625C9.0625 143.688 6.25 140.875 6.25 137.438ZM100.188 93.6875C100.188 43.6875 6.25 43.6875 6.25 93.6875H100.188ZM6.375 106.25H100.125V118.75H6.375V106.25Z" fill="#27496D"/>
</svg>
