<svg width="100%" height="100%" viewBox="0 0 150 150" fill="none" xmlns="http://www.w3.org/2000/svg">
<path d="M131 37H18.5C11.625 37 6 42.625 6 49.5V99.5C6 106.375 11.625 112 18.5 112H131C137.875 112 143.5 106.375 143.5 99.5V49.5C143.5 42.625 137.875 37 131 37ZM68.5 80.75H49.75V99.5H37.25V80.75H18.5V68.25H37.25V49.5H49.75V68.25H68.5V80.75ZM96.625 93.25C91.4375 93.25 87.25 89.0625 87.25 83.875C87.25 78.6875 91.4375 74.5 96.625 74.5C101.812 74.5 106 78.6875 106 83.875C106 89.0625 101.812 93.25 96.625 93.25ZM121.625 74.5C116.438 74.5 112.25 70.3125 112.25 65.125C112.25 59.9375 116.438 55.75 121.625 55.75C126.812 55.75 131 59.9375 131 65.125C131 70.3125 126.812 74.5 121.625 74.5Z" fill="#27496D"/>
</svg>
