<svg width="100%" height="100%" viewBox="0 0 169 150" fill="none" xmlns="http://www.w3.org/2000/svg">
<g clip-path="url(#clip0)">
<path d="M82.1396 43.4355L28.125 87.9229V135.938C28.125 137.181 28.6189 138.373 29.4979 139.252C30.377 140.131 31.5693 140.625 32.8125 140.625L65.6426 140.54C66.8817 140.534 68.068 140.037 68.942 139.159C69.816 138.28 70.3067 137.092 70.3066 135.853V107.813C70.3066 106.569 70.8005 105.377 71.6796 104.498C72.5586 103.619 73.7509 103.125 74.9941 103.125H93.7441C94.9873 103.125 96.1796 103.619 97.0587 104.498C97.9378 105.377 98.4316 106.569 98.4316 107.813V135.832C98.4297 136.449 98.5495 137.06 98.7842 137.63C99.0189 138.201 99.3639 138.719 99.7994 139.156C100.235 139.593 100.752 139.939 101.322 140.176C101.892 140.412 102.502 140.534 103.119 140.534L135.937 140.625C137.181 140.625 138.373 140.131 139.252 139.252C140.131 138.373 140.625 137.181 140.625 135.938V87.8906L86.6221 43.4355C85.9872 42.9238 85.1963 42.6447 84.3809 42.6447C83.5654 42.6447 82.7745 42.9238 82.1396 43.4355V43.4355ZM167.461 73.6729L142.969 53.4844V12.9053C142.969 11.9729 142.598 11.0787 141.939 10.4194C141.28 9.76004 140.386 9.38965 139.453 9.38965H123.047C122.114 9.38965 121.22 9.76004 120.561 10.4194C119.902 11.0787 119.531 11.9729 119.531 12.9053V34.1777L93.3018 12.5977C90.7846 10.5263 87.626 9.39379 84.3662 9.39379C81.1064 9.39379 77.9478 10.5263 75.4307 12.5977L1.27148 73.6729C0.915487 73.9671 0.620959 74.3286 0.404724 74.7367C0.18849 75.1448 0.0547874 75.5915 0.0112563 76.0513C-0.0322748 76.5111 0.0152187 76.975 0.151023 77.4164C0.286827 77.8579 0.508281 78.2682 0.802731 78.624L8.27343 87.7061C8.56708 88.0631 8.92827 88.3588 9.33632 88.576C9.74437 88.7933 10.1913 88.928 10.6514 88.9724C11.1116 89.0167 11.576 88.9699 12.018 88.8346C12.4601 88.6992 12.8711 88.478 13.2275 88.1836L82.1396 31.4238C82.7745 30.9121 83.5654 30.633 84.3809 30.633C85.1963 30.633 85.9872 30.9121 86.6221 31.4238L155.537 88.1836C155.893 88.478 156.303 88.6995 156.745 88.8353C157.186 88.9711 157.65 89.0186 158.11 88.9751C158.57 88.9315 159.016 88.7978 159.424 88.5816C159.833 88.3654 160.194 88.0708 160.488 87.7148L167.959 78.6328C168.253 78.2749 168.474 77.8625 168.608 77.4191C168.742 76.9757 168.787 76.5102 168.741 76.0493C168.695 75.5884 168.558 75.1412 168.338 74.7333C168.118 74.3255 167.82 73.9651 167.461 73.6729V73.6729Z" fill="white"/>
</g>
<defs>
<clipPath id="clip0">
<rect width="168.75" height="150" fill="white"/>
</clipPath>
</defs>
</svg>
