<svg width="100%" height="100%" viewBox="0 0 150 150" fill="none" xmlns="http://www.w3.org/2000/svg">
<g clip-path="url(#clip0)">
<path d="M145.72 105.996L112.907 91.9336C111.506 91.3362 109.948 91.2103 108.468 91.5749C106.989 91.9395 105.668 92.7748 104.704 93.9551L90.1729 111.709C67.3674 100.956 49.0143 82.6033 38.2617 59.7979L56.0156 45.2666C57.1983 44.3047 58.0353 42.9837 58.4001 41.5036C58.7648 40.0234 58.6374 38.4647 58.0371 37.0635L43.9746 4.25098C43.3158 2.74045 42.1505 1.50716 40.6797 0.763764C39.209 0.0203654 37.5249 -0.186546 35.918 0.17871L5.44922 7.20996C3.89991 7.56773 2.51761 8.44007 1.52794 9.68462C0.538257 10.9292 -0.000356897 12.4724 1.77428e-07 14.0625C1.77428e-07 89.209 60.9082 150 135.938 150C137.528 150.001 139.072 149.463 140.317 148.473C141.562 147.483 142.435 146.101 142.793 144.551L149.824 114.082C150.187 112.467 149.976 110.776 149.227 109.301C148.478 107.825 147.237 106.656 145.72 105.996V105.996Z" fill="white"/>
</g>
<defs>
<clipPath id="clip0">
<rect width="150" height="150" fill="white"/>
</clipPath>
</defs>
</svg>
