<svg width="100%" height="100%" viewBox="0 0 150 150" fill="none" xmlns="http://www.w3.org/2000/svg">
<path d="M28.125 75C36.7544 75 43.75 68.0044 43.75 59.375C43.75 50.7456 36.7544 43.75 28.125 43.75C19.4955 43.75 12.5 50.7456 12.5 59.375C12.5 68.0044 19.4955 75 28.125 75Z" fill="#27496D"/>
<path d="M56.25 50C64.8794 50 71.875 43.0045 71.875 34.375C71.875 25.7456 64.8794 18.75 56.25 18.75C47.6205 18.75 40.625 25.7456 40.625 34.375C40.625 43.0045 47.6205 50 56.25 50Z" fill="#27496D"/>
<path d="M93.75 50C102.379 50 109.375 43.0045 109.375 34.375C109.375 25.7456 102.379 18.75 93.75 18.75C85.1206 18.75 78.125 25.7456 78.125 34.375C78.125 43.0045 85.1206 50 93.75 50Z" fill="#27496D"/>
<path d="M121.875 75C130.504 75 137.5 68.0044 137.5 59.375C137.5 50.7456 130.504 43.75 121.875 43.75C113.246 43.75 106.25 50.7456 106.25 59.375C106.25 68.0044 113.246 75 121.875 75Z" fill="#27496D"/>
<path d="M108.375 92.875C102.938 86.5 98.3752 81.0625 92.8752 74.6875C90.0002 71.3125 86.3127 67.9375 81.9377 66.4375C81.2502 66.1875 80.5627 66 79.8752 65.875C78.3127 65.625 76.6252 65.625 75.0002 65.625C73.3752 65.625 71.6877 65.625 70.0627 65.9375C69.3752 66.0625 68.6877 66.25 68.0002 66.5C63.6252 68 60.0002 71.375 57.0627 74.75C51.6252 81.125 47.0627 86.5625 41.5627 92.9375C33.3752 101.125 23.3127 110.188 25.1877 122.875C27.0002 129.25 31.5627 135.562 39.7502 137.375C44.3127 138.312 58.8752 134.625 74.3752 134.625H75.5002C91.0002 134.625 105.563 138.25 110.125 137.375C118.313 135.562 122.875 129.188 124.688 122.875C126.625 110.125 116.563 101.062 108.375 92.875Z" fill="#27496D"/>
</svg>
